<svg xmlns="http://www.w3.org/2000/svg" xmlns:xlink="http://www.w3.org/1999/xlink" width="314" height="274.598" viewBox="0 0 314 274.598"><defs><style>.a{fill:none;}.b{fill:#fff038;}.c{fill:#1a1311;}.d{fill:#fff;}.e{clip-path:url(#a);}.f{fill:#399d26;}</style><clipPath id="a"><rect class="a" width="314" height="274.598"/></clipPath></defs><g transform="translate(-7.589 -2.007)"><rect class="b" width="314" height="274.598" transform="translate(7.589 2.007)"/><rect class="c" width="314" height="7" transform="translate(7.589 249.238)"/><path class="d" d="M11.339,106.3h14v-3.5h-14Zm28,0H53.349v-3.5H39.343Zm28.012,0h14v-3.5h-14Zm28.009,0h14v-3.5h-14Zm28.009,0h14v-3.5h-14Zm28,0h14.006v-3.5H151.378Zm28.009,0h14v-3.5h-14Zm28.009,0h14v-3.5h-14Zm28.007,0h14.006v-3.5H235.4Zm28.009,0h14v-3.5h-14Zm28.009,0h14v-3.5h-14Z" transform="translate(5.513 148.187)"/><rect class="c" width="175.132" height="21.006" transform="translate(66.008 242.236)"/><g transform="translate(7.589 2.007)"><g class="e"><path class="d" d="M39.865,101.863v6.18c0,1.9-.968,2.959-2.722,2.959a2.982,2.982,0,0,1-2.833-1.922l.877-.5a2.091,2.091,0,0,0,1.969,1.49c1.035,0,1.65-.729,1.65-1.969v-6.237Z" transform="translate(31.695 144.798)"/><path class="d" d="M40.76,101.863a3.232,3.232,0,0,1,2.255.682A2.219,2.219,0,0,1,43.8,104.3c0,1.3-.751,2.06-2.275,2.322l2.663,4.145H42.877l-2.445-4.088H38.347v4.088H37.322v-8.9Zm-2.413,3.915h2.618c1.092,0,1.786-.58,1.786-1.5s-.682-1.492-1.786-1.492H38.347Z" transform="translate(36.123 144.798)"/><path class="d" d="M45.357,102.108l-4.392,11.007-.524-.319,4.392-11.007Z" transform="translate(40.71 144.689)"/><path class="d" d="M44.873,101.863l2.675,7.741,2.675-7.741h1.628v8.9h-.966v-7.877L48.1,110.766H46.99l-2.779-7.877v7.877h-.966v-8.9Z" transform="translate(44.832 144.798)"/><path class="d" d="M47.645,104.179a2.649,2.649,0,0,1,2.448-1.366,2.3,2.3,0,0,1,2.48,2.47v2.562a4.037,4.037,0,0,0,.274,1.615h-.911a5.3,5.3,0,0,1-.205-1.025,2.81,2.81,0,0,1-2.322,1.161,1.864,1.864,0,0,1-2.107-1.82,2.163,2.163,0,0,1,1.391-2.016,7.529,7.529,0,0,1,2.972-.489,1.72,1.72,0,0,0-.363-1.161,1.569,1.569,0,0,0-1.233-.5,1.719,1.719,0,0,0-1.628.934ZM51.664,106c-2.265.012-3.438.6-3.438,1.719,0,.684.445,1.082,1.208,1.082a2.769,2.769,0,0,0,1.843-.8,1.2,1.2,0,0,0,.388-.914Z" transform="translate(50.796 146.194)"/><path class="d" d="M51.2,104.358a4.274,4.274,0,0,1,2.868-1.536v.978a4.19,4.19,0,0,0-2.868,1.64v3.915h-.978v-6.272H51.2Z" transform="translate(55.084 146.208)"/><path class="d" d="M53.2,102.928v3.928c0,1.149.41,1.717,1.228,1.717a2.182,2.182,0,0,0,1.435-.682,1.87,1.87,0,0,0,.571-1.366v-3.6h.953V109.2h-.783l-.161-.9a2.726,2.726,0,0,1-2.164,1.139,1.949,1.949,0,0,1-1.682-.855,3.026,3.026,0,0,1-.356-1.65v-4.007Z" transform="translate(58.063 146.364)"/><path class="d" d="M56.087,104a2.7,2.7,0,0,1,2.127-1.183,2.041,2.041,0,0,1,1.583.748,2.852,2.852,0,0,1,.477,1.709v4.1h-.953v-4.007c0-1.06-.469-1.685-1.252-1.685a2.1,2.1,0,0,0-1.423.739,1.849,1.849,0,0,0-.558,1.356v3.6h-.958V103.1h.788Z" transform="translate(62.303 146.194)"/><path class="d" d="M63.829,106.2a3.058,3.058,0,1,1-3.028-3.392,3.158,3.158,0,0,1,3.028,3.392m-5.076,0c0,1.482.855,2.537,2.035,2.537s2.05-1.067,2.05-2.537-.865-2.537-2.06-2.537c-1.161,0-2.026,1.079-2.026,2.537" transform="translate(66.156 146.194)"/><path class="d" d="M61.744,102.928v3.928c0,1.149.41,1.717,1.228,1.717a2.182,2.182,0,0,0,1.435-.682,1.869,1.869,0,0,0,.571-1.366v-3.6h.953V109.2h-.783l-.161-.9a2.726,2.726,0,0,1-2.164,1.139,1.949,1.949,0,0,1-1.682-.855,3.026,3.026,0,0,1-.356-1.65v-4.007Z" transform="translate(70.619 146.364)"/><path class="d" d="M69.265,108.025a2.9,2.9,0,0,1-2.722,1.583,3.156,3.156,0,0,1-3.085-3.416,3.123,3.123,0,0,1,3.085-3.379,2.607,2.607,0,0,1,2.5,1.41l-.82.477a1.721,1.721,0,0,0-1.685-1.023,2.572,2.572,0,0,0,0,5.054,2.155,2.155,0,0,0,1.969-1.275Z" transform="translate(74.548 146.194)"/><path class="d" d="M67.327,101.863v3.54a2.648,2.648,0,0,1,2.139-1.2,1.964,1.964,0,0,1,1.593.763,2.855,2.855,0,0,1,.455,1.719v4.076h-.944v-4.019c0-1.07-.442-1.662-1.23-1.662a2.044,2.044,0,0,0-1.364.637,1.87,1.87,0,0,0-.65,1.435v3.609h-.958v-8.9Z" transform="translate(78.827 144.798)"/><path class="d" d="M70.427,103.091H69.244v-1.228h1.183Zm-.089,7.675h-1v-6.272h1Z" transform="translate(83.054 144.798)"/><path class="d" d="M81.722,107.1c0,3.364-2.045,5.778-4.893,5.778s-4.893-2.413-4.893-5.778,2.063-5.775,4.921-5.775c2.836,0,4.866,2.411,4.866,5.775m-8.455,0c0,2.734,1.475,4.641,3.562,4.641s3.562-1.907,3.562-4.641-1.487-4.641-3.589-4.641c-2.045,0-3.535,1.949-3.535,4.641" transform="translate(87.01 144.007)"/><path class="d" d="M85.013,110.494a3.848,3.848,0,0,1-3.616,2.384c-2.959,0-4.977-2.342-4.977-5.778,0-3.379,2.132-5.775,5.118-5.775a4.438,4.438,0,0,1,4.177,2.4l-1.052.561a3.163,3.163,0,0,0-3.125-1.823c-2.231,0-3.76,1.88-3.76,4.627,0,2.764,1.475,4.641,3.634,4.641,1.653,0,2.93-1.233,3.448-3.322H81.648V107.31h4.515v5.274H85.112Z" transform="translate(93.602 144.007)"/><rect class="d" width="1.289" height="10.963" transform="translate(182.18 245.628)"/><path class="d" d="M84.132,101.444v5.62l5.508-5.62h1.63l-4.278,4.375,5.116,6.588H90.455l-4.276-5.763-2.048,2.006v3.757h-1.22V101.444Z" transform="translate(103.147 144.183)"/><path class="d" d="M88.5,101.445v6.477c0,2.369,1.037,3.631,2.974,3.631s2.972-1.277,2.972-3.631v-6.477H95.74V107.8c0,3.268-1.43,4.908-4.264,4.908s-4.261-1.64-4.261-4.908v-6.351Z" transform="translate(109.474 144.183)"/><path class="d" d="M95.938,101.445c2.339,0,3.742,1.023,3.742,2.732a2.38,2.38,0,0,1-1.853,2.4,2.792,2.792,0,0,1,2.386,2.762c0,1.907-1.529,3.07-4.026,3.07H91.63V101.445Zm-3.031,4.723h3.2c1.361,0,2.273-.729,2.273-1.806s-.911-1.825-2.216-1.825H92.907Zm0,5.148h3.379c1.613,0,2.581-.771,2.581-2.063s-1.025-2.033-2.734-2.033H92.907Z" transform="translate(115.965 144.183)"/><path class="d" d="M105.409,107.1c0,3.364-2.045,5.778-4.893,5.778s-4.893-2.413-4.893-5.778,2.063-5.775,4.921-5.775c2.836,0,4.866,2.411,4.866,5.775m-8.455,0c0,2.734,1.475,4.641,3.562,4.641s3.562-1.907,3.562-4.641-1.487-4.641-3.589-4.641c-2.045,0-3.535,1.949-3.535,4.641" transform="translate(121.834 144.007)"/><path class="d" d="M339.352,112.934,279.656,98.4H110.262l-.585-.136L3.343,73.515,5.724,63.286,111.467,87.9H280.916l60.922,14.833Z" transform="translate(-13.831 88.083)"/><rect class="d" width="100.617" height="33.72" transform="translate(118.79 197.892)"/><path class="d" d="M84.087,181.157h-4.9v-74.33L25.722,21.982V0h4.9V20.567l53.464,84.848Z" transform="translate(19.069 -4.958)"/><rect class="d" width="86.338" height="4.904" transform="matrix(0.885, -0.466, 0.466, 0.885, -5.81, 216.486)"/><rect class="d" width="4.901" height="37.336" transform="matrix(0.546, -0.838, 0.838, 0.546, 90.8, 182.896)"/><path class="d" d="M147.968,123.026H95.752v-4.9h47.316V77.2h4.9Z" transform="translate(122.025 108.538)"/><path class="d" d="M269.857,66.509H69.312V55.9H48.357V52.4H72.814v10.6H269.857Z" transform="translate(52.347 72.081)"/><rect class="d" width="105.377" height="3.503" transform="translate(-4.674 111.249)"/><path class="d" d="M89.629,101.134h-3.5V69.469h23.657V57.59h3.5V72.972H89.629Z" transform="translate(107.873 79.709)"/><path class="d" d="M50.113,78.2l-2.2-2.727L116.79,19.916H266.025v3.5h-148Z" transform="translate(51.692 24.322)"/><path class="f" d="M47.5,18.91h6.988l-5.622,4.049,2.443,7.433-6.069-4.6-6.121,4.6,2.47-7.433L35.938,18.91h6.988l2.312-7.3Z" transform="translate(34.089 12.109)"/><rect class="c" width="1.796" height="11.331" transform="translate(93.681 12.42)"/><path class="c" d="M49.671,7.035l5.091,8.371V7.035h1.821V18.366H54.576L49.1,9.278v9.088H47.272V7.035Z" transform="translate(50.752 5.385)"/><path class="c" d="M58.27,7.036l4.152,11.328H60.347l-1.205-3.322H54.92L53.7,18.364H51.625L55.8,7.036Zm-2.858,6.435h3.251L57.037,8.647Z" transform="translate(57.151 5.386)"/><path class="c" d="M64.841,7.035V8.577l-6.38,8.1h7.082v1.685H56.331V16.78l6.321-8.09H56.665V7.035Z" transform="translate(64.07 5.385)"/><path class="c" d="M62.576,7.035v6.926c0,1.892,1.037,3.043,2.747,3.043s2.749-1.151,2.749-3.043V7.035H69.9v6.618c0,3.337-1.529,4.992-4.587,4.992a4.356,4.356,0,0,1-3.643-1.514,5.5,5.5,0,0,1-.911-3.478V7.035Z" transform="translate(70.571 5.385)"/><path class="c" d="M68.257,7.035,71,16.2l2.749-9.169h2.89V18.366H74.917V9.041l-2.944,9.325H70.023L67.091,9.041v9.325H65.367V7.035Z" transform="translate(77.354 5.385)"/><path class="c" d="M77.093,7.036l4.15,11.328H79.168l-1.205-3.322H73.741l-1.218,3.322H70.446L74.623,7.036Zm-2.86,6.435h3.251L75.858,8.647Z" transform="translate(84.821 5.386)"/><path class="c" d="M55.446,23.292a4.888,4.888,0,0,1-4.7,2.608c-3.322,0-5.5-2.344-5.5-5.933,0-3.476,2.3-5.958,5.523-5.958a4.664,4.664,0,0,1,4.431,2.426l-1.559.855a3.009,3.009,0,0,0-2.858-1.739c-2.147,0-3.658,1.823-3.658,4.417s1.457,4.362,3.6,4.362a3.418,3.418,0,0,0,3.253-2.018Z" transform="translate(47.785 15.638)"/><path class="c" d="M56.17,14.123l4.152,11.326H58.248l-1.205-3.32H52.821L51.6,25.449H49.528l4.177-11.326Zm-2.856,6.435h3.248l-1.625-4.824Z" transform="translate(54.068 15.806)"/><path class="c" d="M62.619,14.122v1.625H56.226v3.016h5.637v1.625H56.226V25.45H54.4V14.122Z" transform="translate(61.236 15.804)"/><path class="c" d="M66.725,14.122v1.625H60.161v2.959h5.748v1.628H60.161v3.49h6.786V25.45H58.338V14.122Z" transform="translate(67.021 15.804)"/><path class="c" d="M97.338,67.583a5.224,5.224,0,0,1,5.5,5.439,5.159,5.159,0,0,1-5.5,5.523H93.932V67.583Zm-2.144,9.841h2.159a4.125,4.125,0,0,0,3.2-1.4A4.353,4.353,0,0,0,97.338,68.7H95.194Z" transform="translate(119.349 94.401)"/><path class="c" d="M105.529,72.929a3.766,3.766,0,1,1-3.73-4.177,3.885,3.885,0,0,1,3.73,4.177m-6.252,0c0,1.823,1.052,3.127,2.51,3.127s2.522-1.319,2.522-3.127-1.065-3.127-2.537-3.127c-1.428,0-2.495,1.331-2.495,3.127" transform="translate(125.392 96.119)"/><path class="c" d="M102.866,70.208a3.325,3.325,0,0,1,2.623-1.457,2.505,2.505,0,0,1,1.949.926,3.5,3.5,0,0,1,.588,2.1v5.049h-1.181V71.893c0-1.307-.573-2.075-1.541-2.075a2.592,2.592,0,0,0-1.751.911,2.284,2.284,0,0,0-.687,1.667v4.431h-1.178V69.1h.968Z" transform="translate(130.752 96.118)"/><path class="c" d="M106.445,67.582v6.687l3.757-3.448h1.583l-3.014,2.734,3.592,4.99H110.8l-2.86-4.291-1.5,1.391v2.9h-1.181V67.582Z" transform="translate(136.01 94.399)"/><path class="c" d="M110.438,69.094h-1.46V67.582h1.46Zm-.114,9.453h-1.233V70.82h1.233Z" transform="translate(141.47 94.399)"/><path class="c" d="M21.9,52.179l3.3,9.532,3.3-9.532h2V63.142H29.3v-9.7l-3.436,9.7H24.507l-3.424-9.7v9.7H19.89V52.179Z" transform="translate(10.496 71.754)"/><path class="c" d="M26.623,53.691h-1.46V52.179h1.46Zm-.114,9.451H25.277V55.415h1.233Z" transform="translate(18.248 71.754)"/><path class="c" d="M32.907,53.489v1.025l-5.034,5.61H33.33v1.092H26.416V60.149l5.019-5.622H26.71V53.489Z" transform="translate(20.09 73.681)"/><path class="c" d="M31.035,53.489v4.839c0,1.415.506,2.114,1.514,2.114a2.7,2.7,0,0,0,1.769-.837,2.305,2.305,0,0,0,.7-1.685V53.489H36.2v7.727h-.971l-.2-1.107a3.355,3.355,0,0,1-2.663,1.4,2.413,2.413,0,0,1-2.077-1.052,3.746,3.746,0,0,1-.435-2.033V53.489Z" transform="translate(25.149 73.68)"/><path class="c" d="M34.564,52.179v4.36A3.25,3.25,0,0,1,37.2,55.067a2.415,2.415,0,0,1,1.964.939,3.517,3.517,0,0,1,.561,2.117v5.019H38.558V58.194c0-1.319-.546-2.048-1.514-2.048a2.538,2.538,0,0,0-1.682.786,2.308,2.308,0,0,0-.8,1.766v4.444H33.383V52.179Z" transform="translate(30.332 71.754)"/><path class="c" d="M44.131,57.525a3.768,3.768,0,1,1-7.487,0,3.766,3.766,0,1,1,7.487,0m-6.252,0c0,1.823,1.052,3.127,2.51,3.127s2.525-1.319,2.525-3.127S41.846,54.4,40.374,54.4c-1.428,0-2.495,1.331-2.495,3.127" transform="translate(35.127 73.473)"/><path class="c" d="M21.051,59.266V63.5a3.043,3.043,0,0,1,2.495-1.346c1.892,0,3.352,1.823,3.352,4.177,0,2.413-1.43,4.192-3.352,4.192a3.044,3.044,0,0,1-2.594-1.43l-.183,1.136h-.884V59.266Zm-.03,7.079c0,1.751,1.037,3.112,2.371,3.112S25.7,68.126,25.7,66.345s-1.01-3.127-2.327-3.127-2.357,1.388-2.357,3.127" transform="translate(10.488 82.173)"/><path class="c" d="M23.605,62.117a3.257,3.257,0,0,1,3.014-1.682,2.84,2.84,0,0,1,3.058,3.043v3.154a5,5,0,0,0,.336,1.991H28.892a6.424,6.424,0,0,1-.254-1.262,3.46,3.46,0,0,1-2.858,1.43,2.3,2.3,0,0,1-2.6-2.243,2.662,2.662,0,0,1,1.712-2.483,9.31,9.31,0,0,1,3.658-.6,2.086,2.086,0,0,0-.45-1.428,1.9,1.9,0,0,0-1.512-.618,2.1,2.1,0,0,0-2,1.146Zm4.948,2.243c-2.789.015-4.234.744-4.234,2.117,0,.842.548,1.331,1.487,1.331a3.409,3.409,0,0,0,2.273-.981,1.472,1.472,0,0,0,.474-1.121Z" transform="translate(15.337 83.892)"/><path class="c" d="M27.963,61.892a3.325,3.325,0,0,1,2.623-1.457,2.505,2.505,0,0,1,1.949.926,3.5,3.5,0,0,1,.588,2.1v5.049H31.943V63.577c0-1.307-.573-2.075-1.541-2.075a2.6,2.6,0,0,0-1.751.909,2.293,2.293,0,0,0-.687,1.67v4.431H26.785V60.786h.968Z" transform="translate(20.632 83.892)"/><path class="c" d="M31.428,59.266v6.687L35.185,62.5h1.583l-3.014,2.734,3.592,4.99H35.788l-2.86-4.291-1.5,1.391v2.9H30.248V59.266Z" transform="translate(25.723 82.173)"/><path class="c" d="M33.549,86.114a5.224,5.224,0,0,1,5.5,5.439,5.159,5.159,0,0,1-5.5,5.523H30.143V86.114Zm-2.144,9.841h2.159a4.125,4.125,0,0,0,3.2-1.4,4.353,4.353,0,0,0-3.211-7.319H31.405Z" transform="translate(25.569 121.644)"/><path class="c" d="M41.74,91.46a3.766,3.766,0,1,1-3.73-4.177,3.885,3.885,0,0,1,3.73,4.177m-6.252,0c0,1.823,1.052,3.127,2.51,3.127s2.522-1.319,2.522-3.127-1.065-3.127-2.537-3.127c-1.428,0-2.495,1.331-2.495,3.127" transform="translate(31.611 123.363)"/><path class="c" d="M39.167,87.424v4.839c0,1.415.506,2.114,1.514,2.114a2.7,2.7,0,0,0,1.769-.837,2.305,2.305,0,0,0,.7-1.685V87.424H44.33v7.727h-.971l-.2-1.107a3.355,3.355,0,0,1-2.663,1.4,2.413,2.413,0,0,1-2.077-1.052,3.746,3.746,0,0,1-.435-2.033V87.424Z" transform="translate(37.104 123.57)"/><path class="c" d="M43.988,86.647v1.919h2.075v1H43.988v5c0,.519.166.7.645.7h1.43v1.023H44.351c-1.079,0-1.529-.462-1.529-1.569v-5.16h-1.68v-1h1.68V86.647Z" transform="translate(41.739 122.428)"/><path class="c" d="M51.038,91.46a3.766,3.766,0,1,1-3.73-4.177,3.885,3.885,0,0,1,3.73,4.177m-6.252,0c0,1.823,1.052,3.127,2.51,3.127s2.525-1.319,2.525-3.127-1.067-3.127-2.539-3.127c-1.428,0-2.495,1.331-2.495,3.127" transform="translate(45.281 123.363)"/><path class="c" d="M48.5,89.186a5.242,5.242,0,0,1,3.535-1.892V88.5A5.168,5.168,0,0,0,48.5,90.518v4.824H47.3V87.615H48.5Z" transform="translate(50.791 123.379)"/><path class="c" d="M64.3,86.7l5.62,9.07V86.7h1.25V97.658H69.757l-5.916-9.505v9.505h-1.25V86.7Z" transform="translate(73.273 122.499)"/><path class="c" d="M74.261,92.042a3.766,3.766,0,1,1-3.73-4.177,3.885,3.885,0,0,1,3.73,4.177m-6.252,0c0,1.823,1.052,3.127,2.51,3.127s2.524-1.319,2.524-3.127-1.067-3.127-2.539-3.127c-1.428,0-2.495,1.331-2.495,3.127" transform="translate(79.423 124.218)"/><path class="c" d="M71.728,89.768a5.242,5.242,0,0,1,3.535-1.892v1.205A5.168,5.168,0,0,0,71.728,91.1v4.824H70.523V88.2h1.205Z" transform="translate(84.934 124.235)"/><path class="c" d="M75.489,87.229v1.919h2.075v1H75.489v5c0,.519.165.7.645.7h1.43v1.023H75.852c-1.079,0-1.529-.462-1.529-1.569v-5.16h-1.68v-1h1.68V87.229Z" transform="translate(88.051 123.283)"/><path class="c" d="M76.476,86.7v4.36a3.25,3.25,0,0,1,2.633-1.472,2.415,2.415,0,0,1,1.964.939,3.517,3.517,0,0,1,.561,2.117v5.019H80.47V92.711c0-1.319-.546-2.048-1.514-2.048a2.538,2.538,0,0,0-1.682.786,2.308,2.308,0,0,0-.8,1.766v4.444H75.295V86.7Z" transform="translate(91.95 122.5)"/><path class="c" d="M87.316,94.314a3.665,3.665,0,0,1-3.434,1.922c-2.3,0-3.814-1.655-3.814-4.18a3.933,3.933,0,0,1,3.814-4.192c2.1,0,3.545,1.751,3.6,4.362H81.26a3.539,3.539,0,0,0,.548,1.875,2.367,2.367,0,0,0,2.06,1.1,2.748,2.748,0,0,0,2.522-1.529ZM86.237,91.27a2.422,2.422,0,0,0-2.369-2.384,2.6,2.6,0,0,0-2.522,2.384Z" transform="translate(98.969 124.217)"/><path class="c" d="M85.3,88.006l2.4,2.9,2.4-2.9h1.5L88.456,91.64l3.55,4.093H90.42L87.7,92.423,85,95.733H83.4l3.562-4.093L83.8,88.006Z" transform="translate(103.861 124.426)"/><path class="c" d="M88.933,88.208h-1.46V86.7h1.46Zm-.111,9.451H87.589V89.932h1.233Z" transform="translate(109.854 122.5)"/><path class="c" d="M91.522,87.229v1.919H93.6v1H91.522v5c0,.519.165.7.645.7H93.6v1.023H91.885c-1.079,0-1.529-.462-1.529-1.569v-5.16h-1.68v-1h1.68V87.229Z" transform="translate(111.622 123.283)"/><path class="c" d="M63.2,78.4c0,2.939-1.786,5.047-4.273,5.047s-4.276-2.107-4.276-5.047,1.8-5.047,4.3-5.047c2.473,0,4.249,2.11,4.249,5.047m-7.386,0c0,2.391,1.287,4.056,3.112,4.056s3.112-1.665,3.112-4.056-1.3-4.056-3.137-4.056c-1.791,0-3.088,1.7-3.088,4.056" transform="translate(61.606 102.886)"/><path class="c" d="M59.719,75.547a2.274,2.274,0,0,1,1.823-1.067A1.624,1.624,0,0,1,63.1,75.643,2.217,2.217,0,0,1,65,74.48,1.793,1.793,0,0,1,66.774,76.5v5.034H65.769V76.525a.981.981,0,0,0-.953-1.114,1.737,1.737,0,0,0-1.534,1.739v4.387h-1V76.525a.98.98,0,0,0-.978-1.114,1.718,1.718,0,0,0-1.522,1.739v4.387H58.761V74.786h.786Z" transform="translate(67.642 104.54)"/><path class="c" d="M68.95,80.115a3.2,3.2,0,0,1-3,1.677c-2.008,0-3.332-1.445-3.332-3.651a3.435,3.435,0,0,1,3.332-3.661c1.838,0,3.1,1.531,3.147,3.809H63.658a3.1,3.1,0,0,0,.479,1.643,2.07,2.07,0,0,0,1.8.956,2.406,2.406,0,0,0,2.206-1.336Zm-.944-2.658a2.117,2.117,0,0,0-2.07-2.082,2.266,2.266,0,0,0-2.2,2.082Z" transform="translate(73.31 104.542)"/><path class="c" d="M68.3,73.459V78.37l4.812-4.911h1.423L70.8,77.28l4.469,5.758H73.824L70.09,78,68.3,79.756v3.283H67.234V73.459Z" transform="translate(80.099 103.039)"/><path class="c" d="M71.164,75.95a2.844,2.844,0,0,1,2.631-1.47,2.479,2.479,0,0,1,2.67,2.66v2.754a4.388,4.388,0,0,0,.3,1.739h-.981a5.432,5.432,0,0,1-.22-1.1,3.03,3.03,0,0,1-2.5,1.247A2,2,0,0,1,70.8,79.82a2.322,2.322,0,0,1,1.494-2.166,8.08,8.08,0,0,1,3.2-.526,1.847,1.847,0,0,0-.39-1.25,1.667,1.667,0,0,0-1.324-.541,1.842,1.842,0,0,0-1.751,1.005Zm4.323,1.961c-2.436.012-3.7.65-3.7,1.85,0,.734.477,1.163,1.3,1.163a2.964,2.964,0,0,0,1.984-.86,1.28,1.28,0,0,0,.417-.978Z" transform="translate(85.336 104.54)"/><path class="c" d="M75.231,74.781H73.956V73.459h1.275Zm-.1,8.258H74.055V76.29h1.079Z" transform="translate(89.981 103.039)"/><path class="c" d="M81.233,73.459v9.579H80.46l-.183-.991a2.578,2.578,0,0,1-2.24,1.245c-1.68,0-2.93-1.566-2.93-3.661,0-2.058,1.275-3.651,2.942-3.651a2.537,2.537,0,0,1,2.169,1.238v-3.76Zm-5.071,6.173c0,1.581.857,2.732,2.021,2.732s2.07-1.2,2.07-2.72-.919-2.732-2.07-2.732-2.021,1.188-2.021,2.72" transform="translate(91.674 103.039)"/><path class="c" d="M84.765,78.131a3.291,3.291,0,1,1-3.258-3.651,3.4,3.4,0,0,1,3.258,3.651m-5.464,0c0,1.593.919,2.732,2.194,2.732s2.2-1.151,2.2-2.732-.931-2.73-2.216-2.73c-1.25,0-2.181,1.161-2.181,2.73" transform="translate(96.253 104.54)"/><path class="c" d="M83.4,79.7a2.245,2.245,0,0,0,2.132,1.225c1.092,0,1.677-.393,1.677-1.114,0-.65-.563-1.03-2.646-1.727-1.139-.417-1.653-1-1.653-1.875,0-1.018,1.015-1.727,2.487-1.727a2.876,2.876,0,0,1,2.473,1.139l-.721.6a1.98,1.98,0,0,0-1.764-.9c-.884,0-1.485.383-1.485.921a.853.853,0,0,0,.43.746,2.389,2.389,0,0,0,.613.272,12.139,12.139,0,0,1,2.389,1.015A1.749,1.749,0,0,1,88.24,79.8c0,1.287-.968,2-2.722,2a3.1,3.1,0,0,1-2.925-1.581Z" transform="translate(102.679 104.542)"/><path class="c" d="M87.668,73.925V75.6h1.813v.867H87.668v4.375c0,.452.148.613.566.613h1.247v.894H87.987c-.944,0-1.334-.405-1.334-1.373V76.472H85.181V75.6h1.472v-1.68Z" transform="translate(106.484 103.724)"/><rect class="c" width="1.596" height="1.593" transform="translate(197.388 184.484)"/><path class="c" d="M31.319,12.943l-4.108,2.695,6.746,1.329.781,1.188-5.244-1.028-2.361,6.894-.8-1.205L28.5,16.93l-2.445-.536-2.744,1.8-.583-.892,8.008-5.254Z" transform="translate(14.664 12.76)"/><path class="c" d="M32.026,16.6,28.553,21.64l5.891-1.356.66,1-8.47,1.583a1.755,1.755,0,0,1-2.1-.907l-.64-.971.771-.506.59.9c.348.534.548.637,1.079.551l1.023-.156,4.012-6.193Z" transform="translate(16.379 17.964)"/><path class="c" d="M32.1,24.741a3.291,3.291,0,1,1-3.587-5.469A3.29,3.29,0,1,1,32.1,24.741m-3-4.57c-1.331.874-1.781,2.268-1.079,3.332s2.169,1.21,3.493.346,1.771-2.277,1.065-3.352c-.684-1.045-2.166-1.188-3.478-.326" transform="translate(20.541 22.37)"/><path class="c" d="M36.658,21.086l-4.888,3.2,4.323,1.092.758,1.158-3.438-.892L31.48,30.663l-.741-1.139L32.5,25.377l-1.734-.43L28.649,26.34l-.566-.865,8.008-5.254Z" transform="translate(22.542 24.771)"/><path class="c" d="M34.157,23.6a2.848,2.848,0,0,1,2.673,1.393,2.479,2.479,0,0,1-.758,3.69l-2.3,1.512a4.453,4.453,0,0,0-1.3,1.2l-.534-.82a5.451,5.451,0,0,1,.8-.788,3.027,3.027,0,0,1-2.416-1.4,2.008,2.008,0,0,1,.4-2.972,2.325,2.325,0,0,1,2.633.062,8.16,8.16,0,0,1,2.194,2.384,1.84,1.84,0,0,0,.832-1.01,1.677,1.677,0,0,0-.277-1.4,1.841,1.841,0,0,0-1.8-.914Zm.731,4.688c-1.346-2.028-2.569-2.734-3.574-2.077a1.131,1.131,0,0,0-.262,1.724,2.976,2.976,0,0,0,1.808,1.188,1.3,1.3,0,0,0,1.047-.188Z" transform="translate(25.144 29.696)"/><path class="c" d="M37.613,27.751l-5.644,3.7-.59-.9,5.642-3.7Zm2.418-1.472-1.1.724-.7-1.065,1.107-.726Z" transform="translate(27.385 32.108)"/><path class="c" d="M42.5,29.99a4.566,4.566,0,0,1-1.341,6.62,4.507,4.507,0,0,1-6.669-1.366l-1.633-2.487L40.869,27.5Zm-8.221,3.147,1.035,1.578a3.608,3.608,0,0,0,2.557,1.662,3.8,3.8,0,0,0,3.809-5.852L40.654,28.96Z" transform="translate(29.561 35.476)"/><path class="c" d="M40.633,37.759a3.292,3.292,0,1,1-3.587-5.471,3.291,3.291,0,1,1,3.587,5.471m-3-4.57c-1.331.874-1.783,2.268-1.082,3.332s2.174,1.21,3.5.343,1.771-2.277,1.067-3.352c-.684-1.042-2.171-1.186-3.48-.324" transform="translate(33.092 41.504)"/><path class="c" d="M41.7,35.51a4.594,4.594,0,0,1,3.078,1.675l-.882.578a4.525,4.525,0,0,0-3.172-1.615l-3.52,2.312-.578-.879,5.642-3.7.58.877Z" transform="translate(35.103 44.852)"/><path class="c" d="M44.1,37.639l-5.647,3.7-.588-.9,5.642-3.7Zm2.418-1.472-1.107.724-.7-1.065,1.107-.726Z" transform="translate(36.919 46.645)"/><path class="c" d="M40.732,40.689a2.247,2.247,0,0,0,.146,2.455c.6.911,1.247,1.188,1.853.79.541-.356.553-1.033,0-3.159-.279-1.181-.079-1.927.66-2.408.85-.558,2-.1,2.806,1.131a2.875,2.875,0,0,1,.405,2.69l-.9-.272a1.98,1.98,0,0,0-.22-1.966c-.482-.739-1.134-1.03-1.583-.736a.864.864,0,0,0-.39.771,2.513,2.513,0,0,0,.111.66,12.088,12.088,0,0,1,.459,2.554,1.742,1.742,0,0,1-.773,1.591c-1.077.7-2.2.284-3.159-1.181A3.106,3.106,0,0,1,39.86,40.3Z" transform="translate(39.333 51.102)"/><path class="c" d="M48.3,41.129l-1.4.921,1,1.517-.726.477-.993-1.519-3.658,2.4c-.38.252-.435.462-.2.81L43,46.776l-.748.492-.82-1.25a1.156,1.156,0,0,1,.415-1.867l3.769-2.473-.808-1.23.726-.479L46.34,41.2l1.4-.921Z" transform="translate(41.705 53.802)"/><rect class="c" width="1.592" height="1.598" transform="translate(84.729 102.259) rotate(-33.345)"/><path class="c" d="M51.837,72a4.949,4.949,0,1,1-4.948-4.95A4.947,4.947,0,0,1,51.837,72" transform="translate(42.911 93.615)"/><path class="c" d="M60.215,91.892a4.949,4.949,0,1,1-4.948-4.95,4.947,4.947,0,0,1,4.948,4.95" transform="translate(55.228 122.861)"/><path class="c" d="M98.694,72.823a4.95,4.95,0,1,1-4.95-4.948,4.951,4.951,0,0,1,4.95,4.948" transform="translate(111.796 94.83)"/><path class="c" d="M51.541,84.507,38.488,59.529l.622-.324L52.163,84.184Z" transform="translate(37.838 82.084)"/></g></g></g></svg>