<svg xmlns="http://www.w3.org/2000/svg" xmlns:xlink="http://www.w3.org/1999/xlink" width="150.59" height="122.692" viewBox="0 0 150.59 122.692"><defs><style>.a{fill:none;}.b{clip-path:url(#a);}.c{fill:#1a1311;}.d{fill:#e49fb4;}.e{fill:#fff;}.f{fill:#ffecd2;}.g{fill:#0064a9;}.h{fill:#edbdcb;}</style><clipPath id="a"><rect class="a" width="150.59" height="122.692"/></clipPath></defs><g transform="translate(-112 -1554)"><g transform="translate(112 1554)"><g class="b"><path class="c" d="M16.342,81.675a58.779,58.779,0,0,1-7.5,8.118c.955,1.02,1.827,2.041,2.784,3.231L10.159,94.3a45.168,45.168,0,0,0-7.121-7.672l1.3-1.1a40.409,40.409,0,0,1,3.358,3.058,47.486,47.486,0,0,0,5.97-6.374L.022,82.376,0,80.655l15.364-.106Z"/><path class="c" d="M22.466,94.278a17.465,17.465,0,0,0,6.8-5,38.226,38.226,0,0,0-4.632-4.312,16.336,16.336,0,0,1-3.04,3.017L20.405,86.8a17.422,17.422,0,0,0,6.331-9.414l1.616.489c-.382,1.064-.552,1.552-.85,2.232h6.184l1.04.935C33.2,88.2,29.713,92.831,23.677,95.7ZM25.823,83.97a40.25,40.25,0,0,1,4.44,3.952A17.894,17.894,0,0,0,32.836,81.7h-6.1a20.126,20.126,0,0,1-1.21,2.039Z"/><path class="c" d="M55.938,93.448H39.128V91.663h16.81ZM53.6,82.163H41.466V80.421H53.6Z"/><path class="c" d="M69.518,85.648c-.063,5.334-1.891,8.246-6.226,9.99L62.08,94.171c4.061-1.4,5.653-3.783,5.675-8.523h-8.14V83.97h17.13v1.678Zm4.591-5.227H62.38V78.764H74.109Z"/><path class="c" d="M86.371,95.319H84.757V87.285a25.136,25.136,0,0,1-4.91,3.144l-1.02-1.36a22.233,22.233,0,0,0,9.328-7.691l1.4.935a26.5,26.5,0,0,1-3.188,3.569Z"/><path class="c" d="M110.726,81.675a58.72,58.72,0,0,1-7.5,8.118c.958,1.02,1.829,2.041,2.784,3.231L104.542,94.3a45.122,45.122,0,0,0-7.119-7.672l1.3-1.1a39.928,39.928,0,0,1,3.357,3.058,47.435,47.435,0,0,0,5.972-6.374l-13.643.169-.021-1.721,15.363-.106Z"/><rect class="c" width="17.15" height="1.784" transform="translate(114.874 85.565)"/><path class="c" d="M148.9,80.507l.978.913c-1.319,6.652-4.74,11.392-10.266,14.132l-1.252-1.444a16.358,16.358,0,0,0,9.582-11.945h-6.034a19.7,19.7,0,0,1-4.612,5.74l-1.232-1.254a18.507,18.507,0,0,0,5.993-9.054l1.635.532c-.4,1.1-.615,1.657-.955,2.38Z"/><path class="c" d="M13.487,120.29a14.508,14.508,0,0,0,3.378.319c.7,0,1.4-.022,2.55-.085a9.289,9.289,0,0,0-.509,1.635c-.958.023-1.126.023-1.467.023-4.568,0-6.61-.829-8.353-3.422a11.016,11.016,0,0,1-2.315,3.932l-1.106-1.148a11.237,11.237,0,0,0,2.848-6.567l1.444.276a16.325,16.325,0,0,1-.4,1.976,6.372,6.372,0,0,0,2.4,2.508v-5.482H6.749v-.595c-.127.065-.338.149-.4.191l-.17.085c-.511.233-.977.446-1.743.766v6.312c0,1.1-.467,1.528-1.678,1.528a16.687,16.687,0,0,1-1.977-.148L.5,120.779a9.415,9.415,0,0,0,1.744.212c.467,0,.616-.128.616-.553v-5.121c-.871.34-1.382.511-2.232.787l-.552-1.488c.893-.255,1.977-.595,2.784-.871v-4.463H.353v-1.467H2.861v-4.228H4.433v4.228H6.622v1.467H4.433v3.867c.786-.3,1.383-.552,2.338-.977l.064.723H18.906v1.36H13.487v2.019h4.632v1.338H13.487Zm3.759-8.883H8.152v-7.183h9.094Zm-7.584-4.228h6.1v-1.721h-6.1Zm0,3h6.1v-1.807h-6.1Z"/><path class="c" d="M20.757,119.185a17.075,17.075,0,0,0,4.25-5.759l1.53.682a19.11,19.11,0,0,1-4.485,6.289Zm10.22,1.382c0,1.3-.446,1.679-2.018,1.679a27.472,27.472,0,0,1-3.061-.17l-.383-1.765a20.125,20.125,0,0,0,2.977.276c.595,0,.765-.17.765-.72v-8.035H20.84v-1.55H39.116v1.55H30.977Zm5.907-13.9H23.051v-1.551H36.884Zm.852,13.6a43.212,43.212,0,0,0-4.676-6.119l1.425-.894a50.059,50.059,0,0,1,4.739,5.845Z"/><path class="c" d="M40.627,107.433c4.655-.659,10.6-1.3,16.661-1.807l.235,1.68a12.051,12.051,0,0,0-4.421.978c-2.912,1.3-4.868,3.93-4.868,6.544,0,3.4,2.274,5.058,7.1,5.164l.084,1.871c-5.546-.043-8.9-2.614-8.9-6.822,0-2.847,1.467-5.248,4.463-7.2l-.957.105c-3.975.489-6.715.872-9.052,1.254Zm15.089,6.44a14.417,14.417,0,0,0-2.041-2.826l1.063-.7a18.649,18.649,0,0,1,2.062,2.762Zm2-1.382a14.389,14.389,0,0,0-2.083-2.784l1.041-.722a20.173,20.173,0,0,1,2.1,2.74Z"/><path class="c" d="M64.577,107.03a13.557,13.557,0,0,1-3.145,1.232v-1.849a10.655,10.655,0,0,0,3.633-1.764h1.469v16.683H64.577Z"/><path class="c" d="M83.387,113.022c0,5.227-2.529,8.756-6.291,8.756s-6.289-3.506-6.289-8.756c0-5.27,2.527-8.755,6.331-8.755,3.72,0,6.249,3.548,6.249,8.755m-10.626.022c0,4.144,1.808,7.1,4.357,7.1,2.508,0,4.315-2.977,4.315-7.121,0-4.165-1.807-7.119-4.358-7.119-2.506,0-4.314,2.976-4.314,7.141"/><path class="c" d="M93.525,108.942c0,2.742-1.573,4.633-3.846,4.633-2.232,0-3.8-1.913-3.8-4.654s1.572-4.632,3.846-4.632c2.231,0,3.8,1.913,3.8,4.653m-6.036,0c0,1.957.871,3.188,2.232,3.188,1.317,0,2.189-1.254,2.189-3.166,0-1.955-.872-3.231-2.231-3.231-1.319,0-2.19,1.276-2.19,3.209m13.537-4.737L89.168,121.841H87.64L99.5,104.205Zm1.764,12.9c0,2.742-1.572,4.655-3.825,4.655-2.273,0-3.824-1.89-3.824-4.675,0-2.742,1.572-4.633,3.845-4.633,2.232,0,3.8,1.933,3.8,4.653m-6.035,0c0,1.957.872,3.209,2.21,3.209s2.211-1.274,2.211-3.187c0-1.955-.871-3.231-2.232-3.231-1.317,0-2.189,1.276-2.189,3.209"/><path class="c" d="M120.771,113.022c0,5.1-3.1,8.757-7.418,8.757s-7.417-3.655-7.417-8.757c0-5.078,3.125-8.755,7.46-8.755,4.292,0,7.375,3.655,7.375,8.755m-12.815,0c0,4.145,2.231,7.034,5.4,7.034s5.4-2.889,5.4-7.034c0-4.122-2.253-7.032-5.441-7.032-3.1,0-5.355,2.952-5.355,7.032"/><path class="c" d="M135.223,104.713v1.743h-9.69v5.356h8.628v1.743h-8.628v7.777H123.6V104.713Z"/><path class="c" d="M150.59,104.713v1.743H140.9v5.356h8.627v1.743H140.9v7.777h-1.936V104.713Z"/><path class="d" d="M76.607,17.5c.476.449.955.991,1.51,1.421a3.142,3.142,0,0,0,1.967.748,8.582,8.582,0,0,0,2.978-.639A14.332,14.332,0,0,1,87.74,18.4,16.568,16.568,0,0,1,99.9,23.643a18.854,18.854,0,0,1,5.055,12.423A28.369,28.369,0,0,1,93.409,59.357c-7.327,5.468-17.5,7.667-28.6,3.672-13.28-4.778-18.515-14.073-19.556-23.078-.722-6.218.305-13.552,3.729-18.922,3.217-5.051,9.466-9.355,15.6-9.132a16.052,16.052,0,0,1,3.724.557,20.165,20.165,0,0,1,8.3,5.047"/><path class="e" d="M64.287,33.755C52.9,33.633,49.9,38.125,49.9,42.239c0,4.31,3.156,8.259,7.8,11.719,4.695,3.5,10.844,5.663,15.612,5.663,6.063,0,8.327-.542,11.8-1.85s6.218-3.763,6.218-7.846c0-11.8-21.112-16.107-27.045-16.17"/><path class="f" d="M96.911,34.345a9.979,9.979,0,0,1,1.126,4.785c-.071,3.181-2.989,7.821-5.121,9.543a8.752,8.752,0,0,1-5.5,1.771c-7.75,0-16.026-7.536-16.026-13.611A11.647,11.647,0,0,1,84.425,25.42"/><path class="f" d="M62.707,36.76a7.527,7.527,0,0,0-7.749,7.487c0,4.042,3.084,5.669,6.886,5.669s8.4-1.864,8.4-6.889c0-3.278-3.614-6.267-7.535-6.267"/><path class="f" d="M82.225,49.487c-6.124,2.774-8.038,3.276-11.437,3.276-1.577,0-3.059-1.2-3.823-1.2-.671,0-1.2.359-1.2.886a1.539,1.539,0,0,0,.718,1.124c-1.032.19-2.01.524-2.01,1.1s1.27.741,2.415.525c-.932.695-1.195,2.392.5,1.723-.456.837-.215,1.531.837,1.1-.406.406-.358,1.006.169,1.006s1.267-.768,1.673-1.15a3.342,3.342,0,0,1,1.746-.79,29.327,29.327,0,0,0,6.51-1.483c1.351-.561,3.728-1.649,4.805-2.1A16.582,16.582,0,0,0,87.8,50.489"/><path class="f" d="M54.837,44.279c-.863.08-1.39.511-1.34,1.213a1.17,1.17,0,0,0,1.69.828"/><path class="f" d="M95.293,46.1a1.67,1.67,0,0,1,.687,1.356c0,.726-.692,1.929-1.675,1.929a1.816,1.816,0,0,1-1.339-.734"/><path class="g" d="M64.582,45.229a1.9,1.9,0,0,1-2.087,1.3,2.509,2.509,0,0,1-1.776-.647.536.536,0,0,0-.735-.15.528.528,0,0,0-.118.735,3.486,3.486,0,0,0,2.629,1.079,2.969,2.969,0,0,0,3.077-2,.527.527,0,0,0-.316-.675.547.547,0,0,0-.674.352"/><path class="h" d="M72.023,36.417c0-1.26.382-3.077,1.481-3.077a3.289,3.289,0,0,1,2.985,3.4c0,2.3-1.58,3.494-2.264,3.494s-2.2-.4-2.2-3.812"/><path class="h" d="M86.534,43.736a4,4,0,0,1,3.874,3.638c0,1.339-.6,2.159-3.9,2.113-1.118-.019-3.614-.5-3.614-2.24a3.631,3.631,0,0,1,3.636-3.511"/><path class="h" d="M57.005,45.922c-.3.022-.67.144-.67.515a2.506,2.506,0,0,0,2.151,2.02c.516,0,.815-.753.815-1.29,0-.849-1.351-1.315-2.3-1.245"/><path class="h" d="M67.623,44.547a2.157,2.157,0,0,0-1.854,1.841,1.122,1.122,0,0,0,1.126,1.174,2,2,0,0,0,1.985-1.844,1.112,1.112,0,0,0-1.257-1.171"/><path class="g" d="M99.227,29.942a1.524,1.524,0,0,1-.525,1.771c.247-.414.334-1.389.525-1.771m-1.262,3.509a.893.893,0,0,1-.635.286.4.4,0,0,1-.383-.319.3.3,0,0,1,.3-.27c.11.176.381.24.714.3m-.474,5.665a8.892,8.892,0,0,1-.719,3.29,17.371,17.371,0,0,1-4.206,5.859,8.171,8.171,0,0,1-5.171,1.651,16.7,16.7,0,0,1-10.575-4.4c-3.084-2.683-4.926-5.932-4.926-8.685a10.878,10.878,0,0,1,3.613-8.052,11.1,11.1,0,0,1,3.978-2.362.426.426,0,0,0,.176.494c.333.206.541.094.876-.081a8,8,0,0,1,1.643-.654c.017.24-.065.607.144.654s.208.175.111.3a.433.433,0,0,0,0,.543,1.076,1.076,0,0,0,.862.221c.508-.014,3.252-.079,3.745-.031a7.772,7.772,0,0,1-1.226.4c-.351.082-.7.209-.638.576s.3.447.607.43a7.247,7.247,0,0,1,1-.031c0,.239-.158.813.115.941s.747-.1,1.244-.3c-.209.3-.622.861-.783,1.132s.27.783.718.431,1.436-1.194,1.689-1.419c-.3.847-.811,2.153-.924,2.551s0,.734.351.815.541-.177.734-.4a8.871,8.871,0,0,0,1.181-1.865,11.057,11.057,0,0,0,.413,3.253c.159.479.415.56.576.56s.43-.1.526-.543.093-.861.206-1.213a12.254,12.254,0,0,0,.512,1.739c.157.415.364.606.652.606s.608-.208.56-.782-.112-1.018-.112-1.018c.429.908.988,2.438,1.084,2.756s.254.56.508.56.448-.066.529-.512c.053-.305.124-.7.207-1.157a9.11,9.11,0,0,1,.718,3.745m-3.207,9.74a1,1,0,0,1-.577-.215,16.728,16.728,0,0,0,1.575-1.765,1.4,1.4,0,0,1,.213.674,1.264,1.264,0,0,1-1.211,1.306M82.91,53.021c-.476.2-1.2.494-1.965.835-.977.433-2.082.953-2.84,1.269a29.19,29.19,0,0,1-6.4,1.482,3.666,3.666,0,0,0-2,.91s-.73.771-.921.926-.287.049-.2-.046a.568.568,0,0,0,.156-.371.506.506,0,0,0-.089-.291.462.462,0,0,0-.571-.211c-.081.027-.213.069-.267.081-.125.033-.206.012-.175-.094.023-.08.135-.2.2-.334a.507.507,0,0,0-.043-.647.539.539,0,0,0-.612-.095c-.847.382-.823-.144.006-.809a.478.478,0,0,0,.166-.633.519.519,0,0,0-.588-.28,3.234,3.234,0,0,1-1.542.011c-.084-.02-.123-.153-.057-.192a4.324,4.324,0,0,1,1.4-.439c.207-.038.468-.1.5-.422a.633.633,0,0,0-.287-.519c-.308-.227-.525-.471-.525-.677s.325-.366.7-.366a3.747,3.747,0,0,1,1.034.373,6.169,6.169,0,0,0,2.681.729c.284,0,.781.032,1.035.03,3.353-.043,4.391-.43,9.714-2.846.193-.088.5-.256.787-.419a15.414,15.414,0,0,0,4.287.96,19.682,19.682,0,0,1-3.58,2.085M100.6,31c0-1.834-1-2.6-2.438-2.6-1.247,0-2.538,1.421-3.112,2.489-2.344-2.312-4.574-4.451-8.626-5.631.046-.127-.113-.4-.431-.413s-1.355-.049-1.9-.049c-.257,0-.684-.028-1.243-.017-.736.017-1.356.1-1.756.144a7.133,7.133,0,0,0-1.242.319,12.146,12.146,0,0,0-9.01,11.6c0,3.056,1.976,6.6,5.286,9.481a20.488,20.488,0,0,0,4.864,3.16c-5.321,2.4-6.244,2.727-9.083,2.763-.307.005-.724-.036-1.084-.048a5.015,5.015,0,0,1-2.4-.66,3.505,3.505,0,0,0-1.46-.392c-.983,0-1.746.51-1.746,1.316a1.792,1.792,0,0,0,.286.872c-.8.238-1.578.576-1.578,1.353a.919.919,0,0,0,.354.717,2.46,2.46,0,0,0,1.477.422,1.884,1.884,0,0,0-.152.7,1.16,1.16,0,0,0,.138.569,1.019,1.019,0,0,0,.887.512.886.886,0,0,0,.083.726c.142.239.436.279.7.332a1.008,1.008,0,0,0,.069.337.919.919,0,0,0,.889.563,1.737,1.737,0,0,0,1.4-.624,3.162,3.162,0,0,1,2.081-1.317A32.769,32.769,0,0,0,78.507,56.1c.772-.319,1.885-.841,2.867-1.278.761-.339,1.479-.631,1.942-.828a17.425,17.425,0,0,0,4.753-3.041,9.19,9.19,0,0,0,4.828-1.6,2.108,2.108,0,0,0,1.387.564,2.429,2.429,0,0,0,2.2-2.454,2.2,2.2,0,0,0-.555-1.468A15.858,15.858,0,0,0,98.16,41.4a10.913,10.913,0,0,0,.355-2.391,9.322,9.322,0,0,0-.9-4.368A3.989,3.989,0,0,0,100.6,31"/><path class="g" d="M67.153,47.92a9.739,9.739,0,0,1-5.328,1.471c-2.377,0-6.364-.668-6.364-5.144A6.823,6.823,0,0,1,59,38.19a.524.524,0,0,0,.276.667.558.558,0,0,0,.665-.116.424.424,0,0,0,.629-.064.41.41,0,0,0,.648-.1c.29.147.518.112.632-.016a.233.233,0,0,0,.031-.324.284.284,0,0,0,.211-.161c.384.133.738-.366.555-.776a9.1,9.1,0,0,1,4.96,1.762,5.3,5.3,0,0,1,2.089,3.961,5.571,5.571,0,0,1-2.542,4.894M53.979,45.492c-.029-.273.137-.483.459-.6a6.588,6.588,0,0,0,.168,1.036c-.356.049-.591-.085-.627-.438m11.153-8.739a13.917,13.917,0,0,0-2.614-.4,7.8,7.8,0,0,0-8.1,7.465,1.639,1.639,0,0,0-1.469,1.709,1.465,1.465,0,0,0,.689,1.143,1.682,1.682,0,0,0,1.281.2,5.2,5.2,0,0,0,1.722,2.15,8.741,8.741,0,0,0,5.182,1.42c4.441,0,8.921-2.293,8.921-7.417,0-2.75-2.218-5.4-5.614-6.273"/><path class="g" d="M77.983,38.208a.517.517,0,0,0-.46.577,5.988,5.988,0,0,0,2.636,4.724,5.858,5.858,0,0,0,5.384.9.529.529,0,0,0,.316-.674.5.5,0,0,0-.664-.288,4.751,4.751,0,0,1-4.425-.777,5,5,0,0,1-2.225-3.962.534.534,0,0,0-.562-.5"/><path class="g" d="M92.365,42.483a.527.527,0,0,0-.737.114c-.194.262-.443.575-.691.562s-.368-.018-.9-.539a1.028,1.028,0,0,1-.228-1.308.528.528,0,0,0-.155-.728.587.587,0,0,0-.756.23,1.847,1.847,0,0,0-.252,1.3,3.718,3.718,0,0,0-.632.157.523.523,0,0,0-.322.669.529.529,0,0,0,.67.326,2.943,2.943,0,0,1,.741-.146,2.544,2.544,0,0,0,.213.23l.076.064-.289.4a.525.525,0,1,0,.85.618l.32-.439a2.09,2.09,0,0,0,.352.1l.121.777a.518.518,0,1,0,1.022-.167l-.129-.756a2.505,2.505,0,0,0,.833-.725.531.531,0,0,0-.111-.737m-12.38-8.532a.529.529,0,0,0-.729.152,1.2,1.2,0,0,1-.715.586.974.974,0,0,1-.734-.156,1.039,1.039,0,0,1-.462-1.368.531.531,0,0,0-.3-.683.479.479,0,0,0-.643.282,2.062,2.062,0,0,0-.142.652l-.762.252a.525.525,0,1,0,.341.994l.637-.209a2.408,2.408,0,0,0,.244.39l-.287.416a.526.526,0,1,0,.868.594l.23-.334a.463.463,0,0,0,.044.023l-.048.472a.51.51,0,0,0,.46.569.53.53,0,0,0,.57-.48l.035-.359c.05-.005.1-.012.149-.022a2.247,2.247,0,0,0,1.394-1.042.525.525,0,0,0-.152-.729"/><path class="g" d="M58.8,44l-.025.12c-.141.8-.133.9-.6.879-.431-.02-.5-.155-.549-.465a.487.487,0,0,0-.575-.42.529.529,0,0,0-.407.623A1.324,1.324,0,0,0,58.133,46c1.347,0,1.506-.854,1.664-1.681l.024-.116A.521.521,0,1,0,58.8,44"/><path class="g" d="M67.848,42.771c-.038.456-.049.557-.594.557-.439,0-.467-.073-.519-.2a.551.551,0,0,0-.651-.362.527.527,0,0,0-.36.65,1.411,1.411,0,0,0,1.5.924,1.443,1.443,0,0,0,1.671-1.489.525.525,0,1,0-1.047-.083"/></g></g></g></svg>