<svg xmlns="http://www.w3.org/2000/svg" xmlns:xlink="http://www.w3.org/1999/xlink" width="145.531" height="114.651" viewBox="0 0 145.531 114.651"><defs><style>.a{fill:none;}.b{clip-path:url(#a);}.c{fill:#1a1311;}.d{fill:#fff;}</style><clipPath id="a"><rect class="a" width="145.531" height="114.651"/></clipPath></defs><g transform="translate(-115 -1258)"><g transform="translate(115 1258)"><g class="b"><path class="c" d="M100.5,26.823A26.824,26.824,0,1,1,73.671,0,26.825,26.825,0,0,1,100.5,26.823"/><path class="c" d="M0,79.638A44.832,44.832,0,0,0,5.655,72.73c.511-.764.935-1.062,1.488-1.062.614,0,.911.212,2.017,1.444a64.973,64.973,0,0,0,9.16,8.629l-1.128,1.743A77.858,77.858,0,0,1,8.077,74.41c-.362-.405-.659-.6-.894-.6-.318,0-.487.148-1.1,1.126a39.009,39.009,0,0,1-4.953,6.375Zm16.554-7.864a2.409,2.409,0,0,1-2.336,2.38,2.37,2.37,0,0,1,0-4.739,2.406,2.406,0,0,1,2.336,2.359m-3.74,0a1.4,1.4,0,1,0,2.807,0,1.4,1.4,0,0,0-2.807,0"/><path class="c" d="M24,78.809a24.1,24.1,0,0,0-1.679-4.123l1.467-.639a21.123,21.123,0,0,1,1.7,4.061Zm.934,5.736c4.8-1.955,6.908-4.887,7.906-11.07l1.614.488c-1.019,6.27-3.569,9.9-8.436,12.029Zm3-6.778a25.084,25.084,0,0,0-1.679-4.145l1.447-.658a20.819,20.819,0,0,1,1.742,4.08Z"/><path class="c" d="M43.613,74.622a60,60,0,0,1,7.82,4.312L50.37,80.593a52.621,52.621,0,0,0-7.034-4.273v9.713H41.572V68.352h1.764v6.142Z"/><path class="c" d="M62.291,86.756a13.2,13.2,0,0,1,0-19.126H64.1a13.1,13.1,0,0,0,0,19.126Z"/><path class="c" d="M77.063,75.153c1.4,4.123,4.016,7.013,8.373,9.2l-1.212,1.593a17.21,17.21,0,0,1-8.1-9.01c-.764,4.356-3.146,7.269-7.734,9.436L67.2,84.908c4.759-1.977,7.055-4.889,7.67-9.755H67.182V73.559h7.776V68.012H76.7v5.547h8.545v1.594Zm4.272-2.465a22.867,22.867,0,0,0-2.423-3.4l1.424-.788a25.357,25.357,0,0,1,2.508,3.315Z"/><path class="c" d="M87.456,86.756a13.1,13.1,0,0,0,0-19.126h1.829a13.247,13.247,0,0,1,0,19.126Z"/><path class="c" d="M114.361,77.192c0,5.1-3.1,8.756-7.417,8.756s-7.417-3.654-7.417-8.756c0-5.077,3.125-8.755,7.46-8.755,4.291,0,7.374,3.655,7.374,8.755m-12.813,0c0,4.145,2.229,7.035,5.4,7.035s5.4-2.89,5.4-7.035c0-4.122-2.253-7.032-5.44-7.032-3.1,0-5.354,2.952-5.354,7.032"/><path class="c" d="M120.7,68.883v8.523l8.351-8.523h2.465l-6.482,6.631,7.756,9.988h-2.508L123.8,76.768l-3.1,3.038v5.7h-1.851V68.883Z"/><path class="c" d="M142.5,85.948h-2.614V83.356H142.5Zm-.021-17.511-.4,12.879H140.31l-.381-12.879Z"/><path class="c" d="M4.3,114.651a13.2,13.2,0,0,1,0-19.126H6.11a13.106,13.106,0,0,0,0,19.126Z"/><path class="c" d="M20.413,97.524c0,4.122.531,6.479,2,8.881a16.726,16.726,0,0,0,6.5,5.823L27.7,113.844a19.253,19.253,0,0,1-6.546-6.292,10.922,10.922,0,0,1-1.572-3.718,14.136,14.136,0,0,1-8.012,10.435l-1.19-1.53c5.675-2.594,8.1-6.843,8.266-14.559H13.867V96.608h6.546Z"/><path class="c" d="M49.742,113.375H48v-1.444H36.652V113.5H34.909V98.18H49.742Zm-13.09-3.06H48V99.8H36.652Z"/><path class="c" d="M60.73,110.4c1.3,1.637,2.912,2.081,7.5,2.081,1.869,0,4.017-.084,6.65-.254a7.1,7.1,0,0,0-.594,1.742c-2.785.086-3.656.107-5.144.107-4.312,0-6.014-.213-7.373-.936a5.506,5.506,0,0,1-1.85-1.679,22.683,22.683,0,0,1-3.1,2.977l-1-1.658a21.435,21.435,0,0,0,3.335-2.466v-4.781H55.949v-1.509H60.73Zm-.785-9.542a28.225,28.225,0,0,0-3.125-3.506l1.19-1a22.918,22.918,0,0,1,3.187,3.4Zm3.994-3.293a41.26,41.26,0,0,0,8.118-1.4l1.212,1.424a51.594,51.594,0,0,1-8.246,1.36v2.806H74.31v1.486H70.887v8.331H69.294v-8.331H65.023c-.022,4.421-.467,6.462-1.785,8.31l-1.254-1.083c1.189-1.7,1.466-3.273,1.466-8.012V97.608Z"/><path class="c" d="M87.912,114.545a83.189,83.189,0,0,0-7.629-8.353,1.959,1.959,0,0,1-.766-1.36,1.365,1.365,0,0,1,.361-.871,5.278,5.278,0,0,1,.977-.871,32.87,32.87,0,0,0,6.4-7.184l1.572,1.17a35.718,35.718,0,0,1-6.672,7.077c-.36.277-.511.489-.511.721,0,.3.084.4.872,1.128,2.04,1.891,4.781,4.739,6.928,7.161Z"/><path class="c" d="M103.575,111.887a10.271,10.271,0,0,0,5.078-2.061,6.062,6.062,0,0,0,2.127-4.845c0-3.251-2.359-5.652-5.844-5.929-.427,6.97-3.315,13.369-6.036,13.369a3.284,3.284,0,0,1-2.231-1.17,6.781,6.781,0,0,1-1.849-4.8,8.653,8.653,0,0,1,2.634-6.161,9.364,9.364,0,0,1,6.843-2.762c4.867,0,8.352,3.145,8.352,7.521,0,4.505-2.826,7.46-8.074,8.459ZM96.5,106.363a5.4,5.4,0,0,0,1.084,3.4,1.823,1.823,0,0,0,1.254.809c.679,0,1.636-1.233,2.465-3.166a29.175,29.175,0,0,0,1.891-8.309,7.452,7.452,0,0,0-4.337,2.081,7.208,7.208,0,0,0-2.357,5.186"/><path class="c" d="M135.306,97.8v1.424H119.962V101.5h3.592v-1.72h1.53v1.72h4.463v-1.72h1.53v1.72h4.186v1.34h-4.186v2.933h-2.955v1.656h5.845v4.719c0,1.042-.488,1.467-1.656,1.467a22.2,22.2,0,0,1-2.34-.128l-.274-1.531a18.887,18.887,0,0,0,2.061.17c.509,0,.679-.148.679-.617v-2.72h-4.315v5.867h-1.549v-5.867h-3.7v4.91h-1.53v-6.27h5.229v-1.656h-3.019v-2.933h-3.592v1.656c0,5.271-.509,7.652-2.167,10.16l-1.232-1.3c1.4-2.23,1.806-4.228,1.806-9.094V97.8h7.67V95.525h1.681V97.8Zm-10.222,6.78h4.463v-1.743h-4.463Z"/><path class="c" d="M139.621,114.651a13.1,13.1,0,0,0,0-19.126h1.827a13.243,13.243,0,0,1,0,19.126Z"/><path class="d" d="M81.174,31.985a3.419,3.419,0,0,0-.888.118c-.477.128-1.046-1.877-2.675-3.839a4.873,4.873,0,0,0-7.888-.065c-1.621,1.9-2.159,3.938-2.537,3.858a3.415,3.415,0,0,0-.695-.072c-2.454,0-4.444,2.64-4.444,5.9s1.99,5.9,4.444,5.9a13.844,13.844,0,0,0,3.377-.832,14.248,14.248,0,0,1,7.813-.092,12.613,12.613,0,0,0,3.493.924c2.453,0,4.441-2.64,4.441-5.9s-1.988-5.9-4.441-5.9"/><path class="d" d="M65.1,24.572c-.9-2.952-3.481-4.722-5.759-3.952s-3.391,3.785-2.489,6.738,3.481,4.725,5.759,3.954S66,27.529,65.1,24.572"/><path class="d" d="M68.973,22.831c2.662-.483,4.362-3.672,3.8-7.125s-3.184-5.861-5.848-5.38S62.562,14,63.128,17.451s3.181,5.86,5.845,5.38"/><path class="d" d="M88,20.619c-2.276-.77-4.855,1-5.758,3.952s.213,5.973,2.489,6.74,4.858-1,5.759-3.954-.212-5.969-2.49-6.738"/><path class="d" d="M78.364,22.854c2.7.488,5.346-1.949,5.918-5.446s-1.147-6.727-3.844-7.215-5.345,1.95-5.92,5.447,1.149,6.727,3.846,7.214"/></g></g></g></svg>