<svg xmlns="http://www.w3.org/2000/svg" xmlns:xlink="http://www.w3.org/1999/xlink" width="139.397" height="114.918" viewBox="0 0 139.397 114.918"><defs><style>.a{fill:none;}.b{clip-path:url(#a);}.c{fill:#1a1311;}.d{fill:#fff;}</style><clipPath id="a"><rect class="a" width="139.397" height="114.918"/></clipPath></defs><g transform="translate(-118 -1413)"><g transform="translate(118 1413)"><g class="b"><path class="c" d="M96.372,26.823A26.824,26.824,0,1,1,69.549,0,26.824,26.824,0,0,1,96.372,26.823"/><path class="c" d="M10.946,70.373l3.527,14.111,3.251-14.111h2.254l3.251,14.09,3.528-14.09H28.8L24.354,86.992H22.145l-3.3-14.281L15.557,86.992h-2.21L8.9,70.373Z"/><path class="c" d="M34.812,72.669H32.6v-2.3h2.21Zm-.169,14.323h-1.87V75.282h1.87Z"/><path class="c" d="M41.614,73.241c0-2.039.785-2.868,2.721-2.868h2.613v1.553H44.589c-.829,0-1.17.36-1.17,1.253v2.1h3.529v1.509H43.419v10.2H41.614v-10.2h-3.1V75.282h3.1Z"/><path class="c" d="M53.366,72.669h-2.21v-2.3h2.21ZM53.2,86.992H51.325V75.282H53.2Z"/><path class="c" d="M65.776,76.855l.108-.022a12.185,12.185,0,0,1,3.421-.509c.127-.341.191-.553.4-1.212l1.551.361c-.17.51-.212.617-.34.935,3.145.447,5.312,2.55,5.312,5.164,0,3.379-2.656,5.717-7.183,6.291l-.871-1.51c4.06-.466,6.291-2.145,6.291-4.716,0-2.062-1.552-3.528-4.08-3.868A19.657,19.657,0,0,1,65.947,84.4c.128.788.212,1.212.34,1.787l-1.615.551c-.085-.531-.085-.573-.192-1.168a6.144,6.144,0,0,1-3.144,1.148c-1.361,0-2.167-.894-2.167-2.424a7.652,7.652,0,0,1,3.59-5.993,10.673,10.673,0,0,1,1.383-.807c0-.467.106-2.357.168-3.144-1.466.105-2.464.147-3.165.147-.17,0-.488,0-.85-.019l-.107-1.617c.829.044,1.233.064,1.807.064.787,0,1.424-.02,2.443-.084l.042-.446c.107-1.168.15-1.467.276-2.7l1.679.107c-.17,1.147-.212,1.572-.339,2.569l-.021.32a35.008,35.008,0,0,0,6.1-1.147l.191,1.593A46.828,46.828,0,0,1,65.9,74.219c-.085.935-.171,2.083-.191,2.658ZM63.908,79.32a1.509,1.509,0,0,0-.171.107C61.93,80.765,60.8,82.571,60.8,84.144c0,.617.278.956.786.956a5.605,5.605,0,0,0,2.72-1.233c-.106-.871-.19-2.826-.19-4.25v-.446Zm1.784-.446c0,1.382.022,2.443.064,3.676a17.8,17.8,0,0,0,3-4.823,10.816,10.816,0,0,0-3.061.7Z"/><path class="c" d="M86.946,77.727c-1.084,2.231-2.636,3.91-3.613,3.91-1.168,0-1.849-1.892-1.849-5.206a37.088,37.088,0,0,1,.553-6.057l1.721.211a32.28,32.28,0,0,0-.574,5.782c0,1.848.212,3.017.574,3.017.425,0,1.359-1.3,2.041-2.87ZM85.2,86.269A7.849,7.849,0,0,0,89.879,83.1c.977-1.465,1.317-3.208,1.317-6.777,0-2.167-.086-3.762-.3-6.27h1.849c.192,3,.234,4.229.234,5.864,0,4.316-.318,6.058-1.465,7.949a8.774,8.774,0,0,1-5.145,4Z"/><path class="c" d="M105.9,69.608h1.659l.064,3.167a50.784,50.784,0,0,0,5.482-.659l.128,1.573c-2.317.339-3.7.488-5.568.616l.064,2.656a43.82,43.82,0,0,0,4.569-.6l.106,1.6c-1.338.232-3.272.446-4.654.53l.086,3.868a21.689,21.689,0,0,1,5.462,2.848l-1.022,1.487a22.4,22.4,0,0,0-4.25-2.634l-.127-.044-.042-.02v.17c0,2.422-1.147,3.463-3.805,3.463-3,0-5.121-1.275-5.121-3.1a2.488,2.488,0,0,1,1.574-2.252,1.61,1.61,0,0,1,.19-.084,7.4,7.4,0,0,1,3.061-.574,11.544,11.544,0,0,1,2.464.275l-.063-3.293c-1.02.042-2.189.064-3.1.064-1.019,0-1.743-.022-3.083-.087V77c1.617.106,2.382.129,3.508.129.977,0,1.977-.023,2.636-.065l-.064-2.677c-1.893.063-2.488.086-3.614.086-1.212,0-2.018-.023-3.611-.086V72.775c1.826.106,2.826.148,4.186.148,1.125,0,2.293-.02,2.974-.064Zm.3,13.771-.106-.021a8.554,8.554,0,0,0-2.424-.339,5.231,5.231,0,0,0-2.379.466c-.573.363-.766.637-.766,1.064,0,.871,1.446,1.572,3.232,1.572,1.806,0,2.507-.6,2.507-2.105V83.4Z"/><path class="c" d="M129.452,72.774h.636l2.083-.064,1.254-.02,1.361-.044v1.617l-1.447.021H132.32l-2.4.043-.743.02h-1.148v4.167a8.267,8.267,0,0,1,.405,2.591c0,3.592-1.743,6.013-5.334,7.417l-1.106-1.4c2.486-.828,4.058-2.209,4.7-4.122a2.5,2.5,0,0,1-1.893.914c-1.762,0-3.058-1.616-3.058-3.825,0-2.295,1.274-3.931,3.144-4.016a2.356,2.356,0,0,1,1.489.445V74.389h-.383l-2.848.064-2.7.064-1.637.042-1.723.043V72.966l2.4-.021,1.742-.022,2.55-.042,1.553-.021,1.041-.021V69.63h1.656v3.188ZM126.6,79.767c0-1.275-.7-2.274-1.551-2.274-1.019.063-1.7,1.063-1.7,2.486,0,1.361.743,2.423,1.7,2.423.83,0,1.53-1.02,1.551-2.317Z"/><path class="c" d="M9.9,104.44c-.064,5.334-1.891,8.246-6.227,9.99l-1.21-1.467c4.058-1.4,5.652-3.783,5.672-8.523H0v-1.678H17.128v1.678Zm4.591-5.227H2.763V97.556H14.494Z"/><path class="c" d="M24.272,97.62v13.473a22.567,22.567,0,0,0,10.37-7.48l.977,1.614a26.913,26.913,0,0,1-11.879,8.139l-1.233-1.084V97.62Z"/><path class="c" d="M54.235,99.447c-.871,8.054-3.379,12.027-9.2,14.577l-1.233-1.55c5.4-1.977,7.907-5.632,8.521-12.327H41.995v5.377H40.232V98.469H53.173Z"/><rect class="c" width="17.149" height="1.784" transform="translate(58.744 104.357)"/><path class="c" d="M92.767,99.3l.978.913C92.428,106.864,89,111.6,83.481,114.344L82.227,112.9a16.37,16.37,0,0,0,9.584-11.945H85.776a19.692,19.692,0,0,1-4.611,5.739l-1.234-1.254a18.493,18.493,0,0,0,5.993-9.053l1.637.532c-.4,1.1-.617,1.656-.956,2.38Z"/><path class="c" d="M105.2,107.141h2.466v1.125H105.2v1.4h2.466v1.148H105.2v1.508h2.976v.957c2.1-2.253,3.335-6.226,3.272-10.689v-1.913h-.808a18.013,18.013,0,0,1-1.549,4.1l-1.212-.977a22.476,22.476,0,0,0,2.273-7.949l1.572.235c-.148,1.019-.339,1.955-.594,3.081h5.185l.787.637a28.4,28.4,0,0,1-2.147,5.589l-1.276-.722a19.791,19.791,0,0,0,1.659-4h-2.444v1.913a13.723,13.723,0,0,0,1.168,5.313,14.484,14.484,0,0,0,3.549,5.229l-1.168,1.422a16.278,16.278,0,0,1-4.08-7.65,13.935,13.935,0,0,1-3.549,8.012l-1.17-1.106c.151-.127.17-.169.277-.254h-6.4v1.1h-1.467v-7.714a13.816,13.816,0,0,1-1.446,1.488l-.765-1.339a15.692,15.692,0,0,0,3.636-4.8H98.4v-1.34h3.678a18.082,18.082,0,0,0,.679-1.933h-1.87a14.426,14.426,0,0,1-1.147,1.615l-1.17-.913a11.7,11.7,0,0,0,2.317-4.059l1.445.339a11.74,11.74,0,0,1-.7,1.68h6.29v1.338h-3.656a17.522,17.522,0,0,1-.657,1.933h4.759v1.34h-5.441a15.7,15.7,0,0,1-1.189,2.252h2.231a14.2,14.2,0,0,0,.7-1.913l1.338.32a16.734,16.734,0,0,1-.7,1.593H107.9v1.169h-2.7Zm-3.675,0h2.295v-1.425h-2.295Zm0,2.527h2.295v-1.4h-2.295Zm0,2.656h2.295v-1.508h-2.295Z"/><path class="c" d="M124.861,110.539c1.338,1.679,3.251,2.212,7.948,2.212,1.72,0,3.974-.086,6.588-.235a6.172,6.172,0,0,0-.511,1.657c-2.147.106-3.273.128-4.823.128-4.1,0-6.1-.212-7.5-.807a5.636,5.636,0,0,1-2.36-1.807,19.206,19.206,0,0,1-2.954,2.933l-.935-1.637a21.641,21.641,0,0,0,3-2.273v-5.016H120.4v-1.509h4.462Zm-1-9.838a27.684,27.684,0,0,0-3-3.188l1.148-1.063a25.059,25.059,0,0,1,3.06,3.125Zm3.189-2.742a18.161,18.161,0,0,0,4.695-1.551l.936,1.36a24.956,24.956,0,0,1-4.1,1.338v8.479c1.552-.637,1.912-.785,3.124-1.38l.128,1.444a41.586,41.586,0,0,1-5.716,2.571l-.681-1.507c.851-.277,1.148-.363,1.616-.532Zm11.538,10.115c0,1.147-.4,1.51-1.656,1.51a13.994,13.994,0,0,1-1.85-.107l-.254-1.551a13.278,13.278,0,0,0,1.742.148c.383,0,.49-.127.49-.6V99.533h-3.125v12.494h-1.552V98.108h6.205Z"/><path class="d" d="M57.291,28.942a17.8,17.8,0,0,1,24.888,0l2.97-2.93a22.047,22.047,0,0,0-30.835,0Z"/><path class="d" d="M87.931,23.082l2.977-2.931a30.286,30.286,0,0,0-42.353,0l2.97,2.931a26.031,26.031,0,0,1,36.406,0"/><path class="d" d="M69.733,28.077a14.194,14.194,0,0,0-10.032,4.1l2.97,2.93a10.076,10.076,0,0,1,14.116,0l2.975-2.93a14.2,14.2,0,0,0-10.029-4.1"/><path class="d" d="M69.732,36.454A4.253,4.253,0,1,0,74.187,40.7a4.355,4.355,0,0,0-4.455-4.248"/></g></g></g></svg>